<?xml version="1.0" encoding="UTF-8" standalone="no"?>
<!DOCTYPE svg PUBLIC "-//W3C//DTD SVG 20010904//EN"
              "http://www.w3.org/TR/2001/REC-SVG-20010904/DTD/svg10.dtd">

<svg xmlns="http://www.w3.org/2000/svg"
     width="1.66667in" height="1.66667in"
     viewBox="0 0 500 500">
  <path id="Selection"
        fill="white" stroke="none" stroke-width="1"
        d="M 208.00,43.00
           C 241.31,36.73 273.14,37.39 306.00,46.15
             380.27,65.96 438.89,127.26 456.11,202.00
             458.86,213.91 460.25,225.86 461.09,238.00
             461.09,238.00 462.00,248.00 462.00,248.00
             462.00,248.00 462.00,252.00 462.00,252.00
             462.00,252.00 461.09,262.00 461.09,262.00
             459.37,287.11 455.11,307.50 445.80,331.00
             437.08,352.99 420.46,379.12 403.99,396.00
             385.02,415.44 362.92,432.05 338.00,443.14
             305.82,457.47 277.01,462.41 242.00,462.00
             227.60,461.83 210.98,458.87 197.00,455.37
             114.89,434.84 52.79,365.63 40.73,282.00
             39.41,272.83 38.01,262.23 38.00,253.00
             37.98,242.31 38.85,231.58 40.42,221.00
             41.06,216.67 41.27,212.05 43.00,208.00
             43.00,208.00 47.45,220.00 47.45,220.00
             52.35,232.35 57.86,241.44 65.90,252.00
             69.50,256.73 73.80,260.81 78.00,265.00
             105.29,292.25 138.00,303.44 176.00,303.00
             187.33,302.86 202.27,299.65 213.00,296.00
             290.94,269.45 326.51,177.52 285.57,106.00
             273.52,84.94 256.06,67.48 235.00,55.43
             235.00,55.43 208.00,43.00 208.00,43.00 Z" />
</svg>
