<?xml version="1.0" encoding="UTF-8" standalone="no"?>
<!DOCTYPE svg PUBLIC "-//W3C//DTD SVG 20010904//EN"
              "http://www.w3.org/TR/2001/REC-SVG-20010904/DTD/svg10.dtd">

<svg xmlns="http://www.w3.org/2000/svg"
     width="1.66667in" height="1.66667in"
     viewBox="0 0 500 500">
  <path id="Selection #1"
        fill="white" stroke="none" stroke-width="1"
        d="M 248.00,0.61
           C 258.67,-0.43 259.99,7.61 260.00,16.00
             260.00,16.00 260.00,68.00 260.00,68.00
             259.99,71.23 260.18,75.03 258.69,77.98
             255.39,84.50 247.17,85.65 242.51,79.87
             239.74,76.43 240.01,72.14 240.00,68.00
             240.00,68.00 240.00,14.00 240.00,14.00
             240.09,7.09 241.05,3.25 248.00,0.61 Z
           M 77.04,71.65
           C 85.96,69.86 89.15,75.15 95.00,81.00
             95.00,81.00 123.00,109.00 123.00,109.00
             126.73,112.73 133.97,118.75 134.76,124.00
             135.74,130.50 130.50,135.74 124.00,134.76
             118.75,133.97 112.73,126.73 109.00,123.00
             109.00,123.00 73.43,87.00 73.43,87.00
             69.27,81.27 70.55,74.66 77.04,71.65 Z
           M 416.00,71.74
           C 428.70,68.71 431.34,79.40 427.26,86.00
             425.49,88.87 416.90,97.10 414.00,100.00
             414.00,100.00 389.00,125.00 389.00,125.00
             384.71,129.29 379.78,135.79 373.00,134.76
             367.71,133.96 364.45,129.23 365.24,124.00
             366.03,118.75 373.27,112.73 377.00,109.00
             377.00,109.00 401.00,85.00 401.00,85.00
             405.63,80.37 410.17,74.78 416.00,71.74 Z
           M 241.00,94.42
           C 251.44,93.15 266.55,94.83 277.00,96.59
             346.44,108.26 399.96,166.77 405.09,237.00
             405.09,237.00 406.00,247.00 406.00,247.00
             406.72,308.82 373.30,362.66 318.00,390.25
             296.70,400.87 270.76,406.27 247.00,406.00
             247.00,406.00 238.00,405.17 238.00,405.17
             200.45,401.53 165.83,387.41 139.09,359.96
             95.36,315.07 80.95,244.55 107.31,187.00
             124.77,148.87 155.34,118.60 195.00,104.05
             206.57,99.81 218.77,96.80 231.00,95.29
             231.00,95.29 241.00,94.42 241.00,94.42 Z
           M 8.00,240.57
           C 13.59,239.56 23.90,240.00 30.00,240.00
             30.00,240.00 68.00,240.00 68.00,240.00
             71.23,240.01 75.03,239.82 77.98,241.31
             84.50,244.61 85.65,252.83 79.87,257.49
             76.43,260.26 72.14,259.99 68.00,260.00
             68.00,260.00 16.00,260.00 16.00,260.00
             11.86,259.99 7.57,260.26 4.13,257.49
             -2.90,251.83 0.40,243.58 8.00,240.57 Z
           M 424.00,240.57
           C 429.59,239.56 439.90,240.00 446.00,240.00
             446.00,240.00 484.00,240.00 484.00,240.00
             487.23,240.01 491.03,239.82 493.98,241.31
             500.50,244.61 501.65,252.83 495.87,257.49
             492.43,260.26 488.14,259.99 484.00,260.00
             484.00,260.00 432.00,260.00 432.00,260.00
             427.86,259.99 423.57,260.26 420.13,257.49
             413.10,251.83 416.40,243.58 424.00,240.57 Z
           M 122.00,365.74
           C 129.23,364.06 135.98,367.87 134.76,376.00
             133.99,381.10 127.59,386.41 124.00,390.00
             124.00,390.00 98.00,416.00 98.00,416.00
             94.76,419.24 87.97,426.77 84.00,428.26
             74.70,431.76 67.05,421.78 73.43,413.00
             73.43,413.00 103.00,383.00 103.00,383.00
             108.12,377.88 115.90,368.91 122.00,365.74 Z
           M 371.02,365.74
           C 379.80,363.69 383.26,369.27 389.00,375.00
             389.00,375.00 425.77,412.00 425.77,412.00
             430.08,417.27 430.44,425.91 422.96,428.35
             415.16,430.90 409.86,423.85 405.00,419.00
             405.00,419.00 369.11,383.00 369.11,383.00
             363.61,376.82 363.21,370.04 371.02,365.74 Z
           M 248.00,416.61
           C 258.67,415.57 259.99,423.61 260.00,432.00
             260.00,432.00 260.00,484.00 260.00,484.00
             259.99,487.23 260.18,491.03 258.69,493.98
             255.39,500.50 247.17,501.65 242.51,495.87
             239.74,492.43 240.01,488.14 240.00,484.00
             240.00,484.00 240.00,430.00 240.00,430.00
             240.09,423.09 241.05,419.25 248.00,416.61 Z" />
</svg>
